<svg width="85" height="85" viewBox="0 0 85 85" fill="none" xmlns="http://www.w3.org/2000/svg">
<g id="star">
<rect x="42.6245" y="0.251221" width="60.2479" height="59.5598" rx="2" transform="rotate(45.5398 42.6245 0.251221)" fill="white"/>
<path id="Subtract" d="M10.7269 46.6742C9.34346 47.6213 9.57525 49.7023 11.1222 50.223L28.6921 56.1375L34.2745 73.8158C34.766 75.3722 36.8422 75.6432 37.8153 74.2778L48.1926 59.7168L66.4006 60.4316C68.1023 60.4984 69.1767 58.545 68.1801 57.1965L57.1097 42.2171L62.8444 25.0666C63.361 23.5217 61.9553 22.0893 60.4009 22.5767L43.1454 27.9872L28.3773 16.6365C27.0478 15.6147 25.0745 16.6522 25.1093 18.3548L25.4809 36.573L10.7269 46.6742ZM31.0169 52.6383L16.263 47.6718L28.608 39.2199C29.19 38.8214 29.5352 38.158 29.521 37.4652L29.2144 22.4305L41.4314 31.8204C41.9364 32.2086 42.6065 32.3227 43.2308 32.127L57.8213 27.5521L52.9723 42.0538C52.7648 42.6743 52.8663 43.3464 53.2449 43.8586L62.403 56.2504L47.3767 55.6605C46.6843 55.6333 46.0145 55.966 45.6052 56.5403L36.9222 68.7239L32.2345 53.879C32.0493 53.2926 31.5997 52.8345 31.0169 52.6383Z" fill="#A3A3DA"/>
</g>
</svg>
